<svg xmlns="http://www.w3.org/2000/svg" viewBox="0 0 42.37 42.78"><defs><style>.cls-1{fill:#3a2c8b;}.cls-2{fill:#e9833a;}</style></defs><title>Asset 1auspicious logo</title><g id="Layer_2" data-name="Layer 2"><g id="Layer_1-2" data-name="Layer 1"><path class="cls-1" d="M21.33,0c1.51,0,3,.06,4.53,0a1.64,1.64,0,0,1,1.9,1.32C30.69,9.55,33.67,17.76,36.64,26c1.83,5.09,3.65,10.19,5.53,15.27.42,1.16.25,1.57-1.05,1.53-2.73-.06-5.47,0-8.2,0a1.45,1.45,0,0,1-1.61-1.08Q23.53,21.47,15.67,1.3C15.22.14,15.61,0,16.64,0,18.2.07,19.76,0,21.33,0Z"/><path class="cls-1" d="M27.56,37.2c-3.19-1.86-6.22-2.45-9.42-1.54A10.89,10.89,0,0,0,11,41.83C9.79,38.77,8.7,36,7.6,33.18,7,31.59,6.38,30,5.72,28.42c-.35-.84-.29-1.23.76-1.22,5.61,0,11.21,0,16.82,0,.5,0,1,0,1.16.63Z"/><path class="cls-2" d="M14.14,3.5c.51.34.56.86.73,1.3,1.38,3.49,2.72,7,4.12,10.48A3.55,3.55,0,0,1,19.07,18C18.32,20,17.64,22,17,24c-.24.73-.58,1.14-1.44,1.12-2.73,0-5.46,0-8.19,0-.88,0-1.13-.3-.82-1.15Q10.17,14,13.82,4A2,2,0,0,1,14.14,3.5Z"/><path class="cls-2" d="M4.46,30.81q2.16,5.49,4.33,11c.28.71.07,1-.68,1q-3.66,0-7.31,0c-.77,0-.94-.31-.69-1q2-5.47,4-11Z"/></g></g></svg>