<svg xmlns="http://www.w3.org/2000/svg" viewBox="0 0 140.76 54.65"><defs><style>.cls-1{fill:#a4abbd;}</style></defs><title>Asset 18arrowtwostep</title><g id="Layer_2" data-name="Layer 2"><g id="Layer_1-2" data-name="Layer 1"><path class="cls-1" d="M67.15,50.29a77.19,77.19,0,0,0,7.12-3.6c6.33-4.11,12.58-8.33,18.8-12.59q17.09-11.7,34.09-23.52a9.65,9.65,0,0,0,2.94-2.93q-10,2.52-19.92,5c-1.24.31-2.45.79-3.71,1-1.5.24-3,.08-3.36-1.79-.3-1.61.82-2.27,2.15-2.69,3.21-1,6.4-2.1,9.62-3.06,5.83-1.73,11.69-3.4,17.53-5.09,1.08-.31,2.15-.69,3.25-.89,3.92-.69,5.35.66,5.07,4.71A59.89,59.89,0,0,1,133.23,30c-1.78.08-2.24-1.19-2.1-2.5a65.71,65.71,0,0,1,1.24-7.09c.51-2.31,1.2-4.58,2-7.76-1.84,1-2.93,1.42-3.89,2.07-14.21,9.64-28.37,19.37-42.62,29-4.79,3.22-9.74,6.22-14.76,9.07-2.62,1.49-5.63,3-8.55.71s-2.25-5.6-1.52-8.49c2.13-8.39,4.61-16.69,6.88-25,1-3.5,1.73-7.06,2.76-11.28-2,.18-3.26,0-4.3.46C62,11.89,55.16,14.18,49.2,17.8,37.69,24.79,26.62,32.5,15.44,40c-4.12,2.77-8,5.88-12.06,8.79A4.7,4.7,0,0,1,0,49.65,8.66,8.66,0,0,1,1.44,47.2C18.92,32.77,36.81,18.91,57.25,8.83A55.28,55.28,0,0,1,69.48,4.62c5.08-1.15,7.42,1,7,6.14a50.92,50.92,0,0,1-1.83,8.93c-2.13,7.9-4.45,15.74-6.57,23.64A58.13,58.13,0,0,0,67.15,50.29Z"/></g></g></svg>