<svg xmlns="http://www.w3.org/2000/svg" viewBox="0 0 524.7 349.86"><defs><style>.cls-1{fill:#31aa8e;}</style></defs><title>Asset 19arrowtwostepthin</title><g id="Layer_2" data-name="Layer 2"><g id="Layer_1-2" data-name="Layer 1"><path class="cls-1" d="M524.59,79.43q-4.77-13.16-9.53-26.32L500,11.44l-3.48-9.6a2.53,2.53,0,0,0-4.18-1.1l-6.25,6.6L471.13,23.09,453.07,42.14,437.37,58.7c-2.53,2.67-5.15,5.28-7.61,8l-.11.12c-2.21,2.34,1.32,5.88,3.54,3.54l6.25-6.6L454.37,48l18.06-19,15.7-16.56,1.52-1.61a616.16,616.16,0,0,1-54.27,146.3,619,619,0,0,1-40.82,67.22c-14.93,21.4-31,42.5-49.27,61.2S304.72,320.14,278,322c-12.48.86-25.1-1.51-35.84-8.11-9-5.56-16.24-13.59-22.53-22-12.81-17.15-23.13-37-41.21-49.42-18.84-12.91-42.89-15-64.78-10.25-50.4,10.94-81,55.17-104.44,97.54-3,5.43-6,10.9-8.91,16.37-1.52,2.83,2.79,5.36,4.32,2.52,23-42.69,49.4-91.48,98.23-108.22C124.39,233,149.29,232,169.79,243c19.65,10.53,30.57,30.54,43.12,48,6.15,8.57,12.84,16.84,21.25,23.31A62.18,62.18,0,0,0,267.59,327c25.9,2,50-10.06,69.22-26.54,9.84-8.46,18.62-18.08,27-28q12.78-15.09,24.56-31a616.25,616.25,0,0,0,42.95-66.37A621.56,621.56,0,0,0,490.34,29c1.53-5.83,3-11.69,4.31-17.56l6.55,18.1,15.09,41.67,3.48,9.59a2.56,2.56,0,0,0,3.07,1.75A2.53,2.53,0,0,0,524.59,79.43ZM493,7.24l.07-.08.05.12Z"/></g></g></svg>