<svg xmlns="http://www.w3.org/2000/svg" viewBox="0 0 396.64 234.36"><defs><style>.cls-1{fill:#31AA8E;}</style></defs><title>Asset 1arrow upward</title><g id="Layer_2" data-name="Layer 2"><g id="objects"><path class="cls-1" d="M364.56,9.05l27.32,40.28c1.8,2.65,6.13.15,4.32-2.52L365.27,1.21a2.52,2.52,0,0,0-4.31,0L331.62,48.52c-1.7,2.74,2.62,5.26,4.32,2.52l23.81-38.39a210.06,210.06,0,0,1-21.46,102.17,203.17,203.17,0,0,1-67.36,77.7,213.11,213.11,0,0,1-105.08,36.39c-33.47,2.23-67.1-4.2-96.67-20.3-27.54-15-51.37-38.55-61.32-68.82a103.52,103.52,0,0,1-3-11c-.68-3.14-5.5-1.81-4.83,1.33,6.87,32.19,28.57,58.69,55.74,76.39,28.37,18.48,62.23,27.84,96,27.9a217.27,217.27,0,0,0,109.77-30,208.17,208.17,0,0,0,74.88-75.48A214.76,214.76,0,0,0,365,22C365,17.69,364.82,13.37,364.56,9.05Z"/></g></g></svg>