<svg xmlns="http://www.w3.org/2000/svg" viewBox="0 0 170.49 233.03"><defs><style>.cls-1{fill:#31aa8e;}.cls-2{fill:#434ca0;}</style></defs><title>Asset 17pplogosvg</title><g id="Layer_2" data-name="Layer 2"><g id="Layer_1-2" data-name="Layer 1"><path class="cls-1" d="M62.65,129H4.35c-4.78,0-4.78,0-3.9-4.83,4.75-25.65,28.79-48,54.67-50.92a120.08,120.08,0,0,1,13.79-.73H165c5.54,0,5.63.11,5.5,5.67-.61,26-23.64,49.43-49.89,50.53-9.7.41-19.43.24-29.14.28S72.24,129,62.65,129Z"/><path class="cls-2" d="M105.44,56.44c-19.94,0-39.87-.08-59.8.07-3.67,0-5-.91-4.92-4.79.22-15.57.08-31.15.1-46.72,0-4.6.35-4.94,4.88-4.94,20.31,0,40.62-.14,60.92,0a65.52,65.52,0,0,1,63.14,51.33c1.06,4.83.93,5-4.14,5Q135.53,56.46,105.44,56.44Z"/><path class="cls-2" d="M42.71,189.64c.43-13.43.94-26.87,1.23-40.31.06-3.16,1-4.28,4.3-4.25,15.81.15,31.62,0,47.43,0,4.79,0,5.46.52,5,5.09-1.27,11.85-.07,24-3.63,35.57-7.94,25.76-25.67,41-51.67,47-3.24.75-4.34.1-4.15-3.55.67-13.17,1-26.37,1.43-39.56Z"/></g></g></svg>