<svg xmlns="http://www.w3.org/2000/svg" viewBox="0 0 496.75 341.36"><defs><style>.cls-1{fill:#31aa8e;}</style></defs><title>Asset 20curledarrow</title><g id="Layer_2" data-name="Layer 2"><g id="Layer_1-2" data-name="Layer 1"><path class="cls-1" d="M494.88,15.92,445.74.13c-3.07-1-4.39,3.84-1.33,4.82l38.2,12.27A573.94,573.94,0,0,0,380,42q-26.16,9-51.38,20.38a334.85,334.85,0,0,0-44.74,24c-28,18.22-52.19,42.84-63.93,74.63a111.31,111.31,0,0,0-4.6,16.07c-11.28,5.08-22.19,11-32.6,16.68A715,715,0,0,0,18.06,318.68Q9.21,327.71.68,337C-1.49,339.4,2,343,4.21,340.57A707.18,707.18,0,0,1,157.62,214.13c14.19-8.67,28.68-16.88,43.47-24.49,4.36-2.24,8.77-4.42,13.23-6.48A95,95,0,0,0,214,209a84.05,84.05,0,0,0,15.9,39.09c16.84,22.6,45.67,36.59,73.54,27,25.88-8.86,46.73-35.19,40.56-63.4-6.08-27.8-34.42-45.52-61.22-48.51-21.23-2.36-42,3.06-61.75,11.33,7.32-30.12,27.31-55.5,51.63-74.2C299.15,80,330.39,66,361.39,54.08A573,573,0,0,1,464,25.3q11-2,22.12-3.57c-13.71,11.32-27.17,23-40,35.28-.82.79-1.64,1.58-2.45,2.38-2.28,2.27,1.25,5.81,3.54,3.54,9.64-9.59,19.95-18.57,30.27-27.41Q486.65,27.69,496,20.1C497.53,18.84,496.51,16.44,494.88,15.92ZM296.27,171.15c12.78,4,24.76,11.41,33.2,21.89,8.18,10.16,12.47,23.58,10,36.56s-10.51,24.27-20.95,32c-10.67,7.93-23.95,12.52-37.3,11.58-13.53-1-26.42-7.24-36.47-16.17a79.77,79.77,0,0,1-22.36-33.85c-4.62-13.64-5.2-28.36-2.66-42.48a170.48,170.48,0,0,1,29.74-10.08C264.87,167.1,281.08,166.42,296.27,171.15Z"/></g></g></svg>