<svg fill="#31AA8E" xmlns="http://www.w3.org/2000/svg" viewBox="0 0 72.11 56"><title>Asset 23curlarrow</title><g id="Layer_2" data-name="Layer 2"><g id="Layer_1-2" data-name="Layer 1"><path d="M57.56,9.36c-1.43,16-13.43,29.71-26.37,30.53a3.71,3.71,0,0,1-.2-1.33c1.71-6.83-1.38-11.83-6.17-16.14A30.44,30.44,0,0,0,12,15.11a19.3,19.3,0,0,0-4.26-.62c-5.47-.07-8.25,3.1-7.65,8.59a17.11,17.11,0,0,0,4.55,9.37A36.83,36.83,0,0,0,20,42.89c1.19.43,2.39.8,4.14,1.39C18.77,51,11.22,52.86,4,55.9a18.5,18.5,0,0,0,3.87,0c6.67-1.51,12.89-4,17.75-9a6.52,6.52,0,0,1,4.93-2.42c8.53-.14,15.41-3.94,21-10.21a45.49,45.49,0,0,0,9.32-16.14c.49-1.49,1-3,1.87-5.44L71,24.58l.91-.39c.07-.85.43-1.81.15-2.52-1.36-3.42-2.78-6.81-4.37-10.12-1.46-3-3.23-5.89-4.75-8.89s-3.09-3.58-5-1.23c-3.32,4.1-6.23,8.53-9.17,12.92-.4.6,0,1.75.08,2.65,1-.22,2.29-.1,2.87-.7C53.66,14.26,55.39,12,57.56,9.36ZM27.1,40.1c-9.85-1.69-17.45-6.27-22.32-15-1-1.86-1.76-4.32,0-5.78,1.22-1,3.59-1.25,5.31-1,6.46,1,11.5,4.62,15.68,9.47C28.72,31.28,29.61,35.11,27.1,40.1Z"/></g></g></svg>