<svg xmlns="http://www.w3.org/2000/svg" viewBox="0 0 290.24 83.02"><defs><style>.cls-1{fill:#31aa8e;}</style></defs><title>Asset 21straightarrow</title><g id="Layer_2" data-name="Layer 2"><g id="Layer_1-2" data-name="Layer 1"><path class="cls-1" d="M1.26,32.29c20.77,12,42.22,23,64.64,31.52,22.16,8.48,45.34,14.65,69,16.74a174.77,174.77,0,0,0,61.15-5A154.48,154.48,0,0,0,247.79,51c15.18-11.23,28-25.73,36.34-42.71,1-2,1.86-3.95,2.71-6L277,6.19l-1.61.63a.84.84,0,0,1-1-.59.85.85,0,0,1,.59-1L286.43.68,288,.05c.55-.22,1,.32,1.07.81l.38,4.87.61,7.77c0,.61.09,1.21.14,1.81a.85.85,0,0,1-.84.84.87.87,0,0,1-.85-.84l-.38-4.87-.46-5.91a118.17,118.17,0,0,1-32.82,43,151.74,151.74,0,0,1-50.58,27.39,171.41,171.41,0,0,1-59.72,7.94c-24.06-1-47.77-6.31-70.45-14.25C51.26,60.62,29.36,50,8.23,38.2Q4.3,36,.41,33.75A.85.85,0,0,1,1.26,32.29Z"/></g></g></svg>